<?xml version="1.0" encoding="UTF-8" standalone="no"?>
<!-- Created with Inkscape (http://www.inkscape.org/) -->

<svg
   width="100"
   height="100"
   viewBox="0 0 100 100"
   version="1.1"
   id="svg5"
   xmlns="http://www.w3.org/2000/svg"
   xmlns:svg="http://www.w3.org/2000/svg">
  <defs
     id="defs9" />
  <path
     style="color:#000000;fill:#3e3e3e;stroke-linecap:round;-inkscape-stroke:none"
     d="M 50,2.1113281 C 23.585881,2.1113281 2.1113281,23.585881 2.1113281,50 2.1113281,76.414119 23.585881,97.888672 50,97.888672 76.414119,97.888672 97.888672,76.414119 97.888672,50 97.888672,23.585881 76.414119,2.1113281 50,2.1113281 Z m 0,5.7773438 C 73.291459,7.8886719 92.111328,26.708541 92.111328,50 92.111328,73.291459 73.291459,92.111328 50,92.111328 26.708541,92.111328 7.8886719,73.291459 7.8886719,50 7.8886719,26.708541 26.708541,7.8886719 50,7.8886719 Z"
     id="circle2" />
  <path
     style="color:#000000;fill:#ce2828;stroke-linecap:round;-inkscape-stroke:none"
     d="m -51.205078,2.125 c -5.711139,0.1392478 -11.47606,1.3070643 -17.029297,3.59375 -22.212949,9.146742 -34.224305,33.398814 -28.039062,56.611328 6.185238,23.212515 28.673083,38.273322 52.492187,35.154297 C -19.962146,94.365354 -2.1113283,74.022448 -2.1113281,50 A 2.8889999,2.8889999 0 0 0 -5,47.111328 2.8889999,2.8889999 0 0 0 -7.8886719,50 c -10e-8,21.166091 -15.6576061,39.005748 -36.6445311,41.753906 -20.986926,2.748158 -40.708412,-10.459647 -46.158203,-30.912109 -5.449791,-20.452462 5.086455,-41.722089 24.658203,-49.78125 19.571748,-8.0591617 42.028452,-0.37532 52.560547,17.984375 a 2.8889999,2.8889999 0 0 0 3.9433591,1.070312 2.8889999,2.8889999 0 0 0 1.0683594,-3.945312 C -17.425985,10.541925 -34.071663,1.7072566 -51.205078,2.125 Z"
     id="circle4"
     transform="rotate(-90)" />
</svg>
