<?xml version="1.0" encoding="UTF-8" standalone="no"?>
<!-- Created with Inkscape (http://www.inkscape.org/) -->

<svg
   width="20"
   height="20"
   viewBox="0 0 20 20"
   version="1.1"
   id="svg5"
   sodipodi:docname="logo.svg"
   inkscape:version="1.1.1 (3bf5ae0d25, 2021-09-20, custom)"
   xmlns:inkscape="http://www.inkscape.org/namespaces/inkscape"
   xmlns:sodipodi="http://sodipodi.sourceforge.net/DTD/sodipodi-0.dtd"
   xmlns="http://www.w3.org/2000/svg"
   xmlns:svg="http://www.w3.org/2000/svg">
  <sodipodi:namedview
     id="namedview12"
     pagecolor="#505050"
     bordercolor="#eeeeee"
     borderopacity="1"
     inkscape:pageshadow="0"
     inkscape:pageopacity="0"
     inkscape:pagecheckerboard="0"
     showgrid="false"
     inkscape:zoom="4.83"
     inkscape:cx="10.041408"
     inkscape:cy="9.9378882"
     inkscape:window-width="1920"
     inkscape:window-height="1014"
     inkscape:window-x="0"
     inkscape:window-y="0"
     inkscape:window-maximized="1"
     inkscape:current-layer="svg5" />
  <defs
     id="defs9" />
  <g
     id="g837"
     transform="matrix(0.20881765,0,0,0.20881765,-0.44088257,-0.44088257)">
    <path
       style="color:#000000;fill:#3e3e3e;stroke-linecap:round;-inkscape-stroke:none"
       d="M 50,2.1113281 C 23.585881,2.1113281 2.1113281,23.585881 2.1113281,50 2.1113281,76.414119 23.585881,97.888672 50,97.888672 76.414119,97.888672 97.888672,76.414119 97.888672,50 97.888672,23.585881 76.414119,2.1113281 50,2.1113281 Z m 0,5.7773438 C 73.291459,7.8886719 92.111328,26.708541 92.111328,50 92.111328,73.291459 73.291459,92.111328 50,92.111328 26.708541,92.111328 7.8886719,73.291459 7.8886719,50 7.8886719,26.708541 26.708541,7.8886719 50,7.8886719 Z"
       id="circle2" />
    <path
       style="color:#000000;fill:#ffbf00;stroke-linecap:round;-inkscape-stroke:none"
       d="m -50,2.1113281 c -19.360976,0 -36.835016,11.6752909 -44.244141,29.5624999 -7.409129,17.88721 -3.309418,38.499176 10.38086,52.189453 13.690277,13.690278 34.302243,17.789989 52.189453,10.38086 C -13.786619,86.835016 -2.1113281,69.360976 -2.1113281,50 A 2.8889999,2.8889999 0 0 0 -5,47.111328 2.8889999,2.8889999 0 0 0 -7.8886719,50 c 0,17.04059 -10.2526421,32.385099 -25.9960941,38.90625 -15.743452,6.521151 -33.843061,2.92061 -45.892578,-9.128906 C -91.82686,67.727827 -95.427402,49.628218 -88.90625,33.884766 -82.385099,18.141314 -67.040589,7.8886719 -50,7.8886719 A 2.8889999,2.8889999 0 0 0 -47.111328,5 2.8889999,2.8889999 0 0 0 -50,2.1113281 Z"
       id="circle4"
       transform="rotate(-90)" />
    <g
       aria-label="SPeek"
       id="text3717"
       style="font-size:18.6667px;line-height:1.25;fill:#ffbf00;fill-opacity:1;stroke:none;stroke-opacity:1">
      <path
         d="m 31.292284,43.797514 v 1.795576 q -1.048179,-0.501303 -1.977868,-0.747397 -0.929689,-0.246094 -1.795576,-0.246094 -1.503909,0 -2.324223,0.583334 -0.811199,0.583334 -0.811199,1.658857 0,0.902345 0.537761,1.36719 0.546876,0.45573 2.0599,0.738283 l 1.111981,0.227865 q 2.059899,0.391927 3.035161,1.385419 0.984377,0.984377 0.984377,2.643234 0,1.977868 -1.330731,2.998703 -1.321617,1.020835 -3.88282,1.020835 -0.966147,0 -2.059899,-0.21875 -1.084638,-0.218751 -2.251307,-0.647137 v -1.895837 q 1.121096,0.628908 2.196619,0.947919 1.075523,0.319011 2.114587,0.319011 1.576826,0 2.433598,-0.619793 0.856773,-0.619793 0.856773,-1.768232 0,-1.002606 -0.619793,-1.567711 -0.610678,-0.565106 -2.014327,-0.847658 L 26.434203,50.70638 q -2.0599,-0.410157 -2.980475,-1.285158 -0.920574,-0.875002 -0.920574,-2.433598 0,-1.804691 1.266929,-2.843755 1.276044,-1.039065 3.509121,-1.039065 0.957033,0 1.950524,0.173178 0.993492,0.173177 2.032556,0.519532 z"
         style="font-family:'DejaVu Sans';-inkscape-font-specification:'DejaVu Sans';fill:#ffbf00;fill-opacity:1;stroke:none;stroke-opacity:1"
         id="path18412" />
      <path
         d="m 36.824847,44.863922 v 5.11329 h 2.315108 q 1.285158,0 1.986983,-0.665365 0.701824,-0.665366 0.701824,-1.895837 0,-1.221357 -0.701824,-1.886722 -0.701825,-0.665366 -1.986983,-0.665366 z m -1.84115,-1.513024 h 4.156258 q 2.287764,0 3.454433,1.039065 1.175784,1.029949 1.175784,3.026047 0,2.014326 -1.175784,3.044276 -1.166669,1.02995 -3.454433,1.02995 h -2.315108 v 5.46876 h -1.84115 z"
         style="font-family:'DejaVu Sans';-inkscape-font-specification:'DejaVu Sans';fill:#ffbf00;fill-opacity:1;stroke:none;stroke-opacity:1"
         id="path18414" />
      <path
         d="m 54.233731,51.435548 v 0.820314 h -7.710952 q 0.109376,1.731774 1.039065,2.643234 0.938804,0.902346 2.606775,0.902346 0.966148,0 1.868493,-0.23698 0.91146,-0.23698 1.804691,-0.710939 v 1.585941 q -0.902345,0.382813 -1.850264,0.583334 -0.947918,0.200521 -1.92318,0.200521 -2.442713,0 -3.873705,-1.421877 -1.421878,-1.421878 -1.421878,-3.846361 0,-2.506515 1.348961,-3.973966 1.358075,-1.476565 3.654955,-1.476565 2.059899,0 3.253912,1.330731 1.203127,1.321617 1.203127,3.600267 z M 52.556644,50.94336 q -0.01823,-1.376305 -0.774741,-2.196619 -0.747397,-0.820314 -1.986982,-0.820314 -1.403649,0 -2.251306,0.792971 -0.838544,0.79297 -0.966148,2.233077 z"
         style="font-family:'DejaVu Sans';-inkscape-font-specification:'DejaVu Sans';fill:#ffbf00;fill-opacity:1;stroke:none;stroke-opacity:1"
         id="path18416" />
      <path
         d="m 65.718129,51.435548 v 0.820314 h -7.710952 q 0.109375,1.731774 1.039065,2.643234 0.938803,0.902346 2.606775,0.902346 0.966148,0 1.868493,-0.23698 0.91146,-0.23698 1.804691,-0.710939 v 1.585941 q -0.902345,0.382813 -1.850264,0.583334 -0.947918,0.200521 -1.92318,0.200521 -2.442713,0 -3.873705,-1.421877 -1.421878,-1.421878 -1.421878,-3.846361 0,-2.506515 1.348961,-3.973966 1.358075,-1.476565 3.654954,-1.476565 2.0599,0 3.253913,1.330731 1.203127,1.321617 1.203127,3.600267 z M 64.041042,50.94336 q -0.01823,-1.376305 -0.774741,-2.196619 -0.747397,-0.820314 -1.986982,-0.820314 -1.403649,0 -2.251307,0.792971 -0.838543,0.79297 -0.966147,2.233077 z"
         style="font-family:'DejaVu Sans';-inkscape-font-specification:'DejaVu Sans';fill:#ffbf00;fill-opacity:1;stroke:none;stroke-opacity:1"
         id="path18418" />
      <path
         d="m 68.406934,42.776679 h 1.686201 v 8.376317 l 5.003915,-4.402352 h 2.141931 l -5.414072,4.77605 5.641937,5.432302 H 75.279342 L 70.093135,51.97331 v 4.985686 h -1.686201 z"
         style="font-family:'DejaVu Sans';-inkscape-font-specification:'DejaVu Sans';fill:#ffbf00;fill-opacity:1;stroke:none;stroke-opacity:1"
         id="path18420" />
    </g>
  </g>
</svg>
